<?xml version="1.0" encoding="utf-8"?><!-- Uploaded to: SVG Repo, www.svgrepo.com, Generator: SVG Repo Mixer Tools -->
<svg width="900px" height="900px" viewBox="0 0 400 400" fill="none" xmlns="http://www.w3.org/2000/svg">
<path d="M233.326 199.387C238 192.94 255.135 134.421 242.701 138.3C238.07 139.747 232.461 158.784 229.976 158.784C229.532 158.784 214.117 107.943 193.823 134.87C173.53 161.797 264.935 324.921 276.511 335.462" stroke="#B108FF" stroke-opacity="0.9" stroke-width="16" stroke-linecap="round" stroke-linejoin="round"/>
<path d="M200.821 261.103C175.831 265.167 155.292 249.438 137.152 229.621C77.646 164.627 127.837 39.0962 223.627 62.981C312.813 85.218 308.884 233.307 222.525 254.836" stroke="#B108FF" stroke-opacity="0.9" stroke-width="16" stroke-linecap="round" stroke-linejoin="round"/>
<path d="M172.282 174.383C164.949 176.112 160.798 176.12 156.151 170.433" stroke="#B108FF" stroke-opacity="0.9" stroke-width="16" stroke-linecap="round" stroke-linejoin="round"/>
<path d="M182.208 221.024C188.384 218.646 194.556 218.81 200.82 219.758" stroke="#B108FF" stroke-opacity="0.9" stroke-width="16" stroke-linecap="round" stroke-linejoin="round"/>
<path d="M279.339 335.316C275.208 332.707 291.143 285.4 290.112 285.053C284.404 283.148 249.148 284.71 240.584 285.053C167.159 287.991 134.211 258.394 109 339.185" stroke="#B108FF" stroke-opacity="0.9" stroke-width="16" stroke-linecap="round" stroke-linejoin="round"/>
<path d="M142.503 292.033C144.524 306.917 144.97 322.796 146.225 337.944" stroke="#B108FF" stroke-opacity="0.9" stroke-width="16" stroke-linecap="round" stroke-linejoin="round"/>
</svg>